<svg xmlns="http://www.w3.org/2000/svg" version="1.1" xmlns:xlink="http://www.w3.org/1999/xlink" width="512" height="512" x="0" y="0" viewBox="0 0 1.707 1.707" style="enable-background:new 0 0 512 512" xml:space="preserve" fill-rule="evenodd" class=""><g><path fill="#d3dcfb" d="M1.285 1.707H.14a.02.02 0 0 1-.02-.02V.3a.02.02 0 0 1 .02-.02h.141a.02.02 0 0 1 .02.02v1.225h.984a.02.02 0 0 1 .02.02v.14a.02.02 0 0 1-.02.02z" opacity="1" data-original="#d3dcfb"></path><path fill="#c1c9e5" d="M.234.281h.047a.02.02 0 0 1 .02.02v1.225h.984a.02.02 0 0 1 .02.02v.047H.281a.047.047 0 0 1-.047-.047V.281z" opacity="1" data-original="#c1c9e5"></path><path fill="#e9efff" d="M1.35 1.566H.282a.02.02 0 0 1-.02-.02V.02A.02.02 0 0 1 .281 0h1.285a.02.02 0 0 1 .02.02v1.31a.02.02 0 0 1-.006.014l-.215.216a.02.02 0 0 1-.014.006z" opacity="1" data-original="#e9efff" class=""></path><path fill="#d3dcfb" d="M1.35 1.566a.02.02 0 0 1-.02-.02V1.33a.02.02 0 0 1 .02-.02h.216a.02.02 0 0 1 .014.034l-.215.216a.02.02 0 0 1-.014.006z" opacity="1" data-original="#d3dcfb"></path><path fill="#ff4155" d="M.638 1.044h-.22a.02.02 0 0 1-.02-.02v-.22a.02.02 0 0 1 .02-.02h.11a.02.02 0 0 1 0 .04h-.09v.18h.18v-.09a.02.02 0 0 1 .04 0v.11a.02.02 0 0 1-.02.02z" opacity="1" data-original="#ff4155"></path><path fill="#ff4155" d="M.528.934H.526A.02.02 0 0 1 .512.927L.475.879A.02.02 0 0 1 .507.854l.023.03.112-.112A.02.02 0 1 1 .67.8L.542.93a.02.02 0 0 1-.014.005zM.638 1.416h-.22a.02.02 0 0 1-.02-.02v-.22a.02.02 0 0 1 .02-.02h.11a.02.02 0 0 1 0 .04h-.09v.18h.18v-.09a.02.02 0 0 1 .04 0v.11a.02.02 0 0 1-.02.02z" opacity="1" data-original="#ff4155"></path><path fill="#ff4155" d="M.528 1.306H.526a.02.02 0 0 1-.014-.008l-.037-.047a.02.02 0 0 1 .032-.025l.023.03.112-.112a.02.02 0 1 1 .028.028L.542 1.3a.02.02 0 0 1-.014.006z" opacity="1" data-original="#ff4155"></path><g fill="#3f5598"><path d="M1.32.878H.939a.02.02 0 0 1 0-.04h.38a.02.02 0 0 1 0 .04zm-.507 0H.748a.02.02 0 0 1 0-.04h.065a.02.02 0 0 1 0 .04zM1.32.99h-.065a.02.02 0 0 1 0-.04h.065a.02.02 0 0 1 0 .04zm-.192 0h-.38a.02.02 0 0 1 0-.04h.38a.02.02 0 0 1 0 .04zM1.199 1.327h-.3a.02.02 0 0 1 0-.04h.3a.02.02 0 0 1 0 .04zm-.4 0H.748a.02.02 0 0 1 0-.04h.05a.02.02 0 0 1 0 .04zM1.199 1.44h-.051a.02.02 0 0 1 0-.04h.05a.02.02 0 0 1 0 .04zm-.151 0h-.3a.02.02 0 0 1 0-.04h.3a.02.02 0 0 1 0 .04zM1.32 1.103H.939a.02.02 0 0 1 0-.04h.38a.02.02 0 0 1 0 .04zm-.507 0H.748a.02.02 0 0 1 0-.04h.065a.02.02 0 0 1 0 .04zM1.32 1.215h-.065a.02.02 0 0 1 0-.04h.065a.02.02 0 0 1 0 .04zm-.192 0h-.38a.02.02 0 0 1 0-.04h.38a.02.02 0 0 1 0 .04zM1.566.694H1.41a.02.02 0 0 1-.02-.02V.02A.02.02 0 0 1 1.41 0h.156a.02.02 0 0 1 .02.02v.654a.02.02 0 0 1-.02.02zM.437.694H.281a.02.02 0 0 1-.02-.02V.02A.02.02 0 0 1 .281 0h.156a.02.02 0 0 1 .02.02v.654a.02.02 0 0 1-.02.02z" fill="#3f5598" opacity="1" data-original="#3f5598"></path></g><path fill="#ffdd40" d="M.924.752a.339.339 0 1 1 0-.677.339.339 0 0 1 0 .677z" opacity="1" data-original="#ffdd40"></path><path fill="#ffb332" d="M.924.726a.312.312 0 1 1 0-.624.312.312 0 0 1 0 .624z" opacity="1" data-original="#ffb332"></path><path fill="#2a428c" d="M.8.508A.007.007 0 0 1 .792.502V.265c0-.004-.003-.04.02-.062C.825.19.843.185.865.186A.085.085 0 0 1 .921.158c.036-.004.075.014.116.053.044.041.036.165.03.256L1.067.5a.007.007 0 0 1-.01.005L.802.507a.007.007 0 0 1-.004.001z" opacity="1" data-original="#2a428c"></path><path fill="#f9ba8f" d="M1.004.471.992.427a.086.086 0 0 1-.06.027.084.084 0 0 1-.055-.023l-.01.04a.07.07 0 0 0 .137 0z" opacity="1" data-original="#f9ba8f"></path><path fill="#faa781" d="M.994.436.992.393a.086.086 0 0 1-.06.028.084.084 0 0 1-.055-.023L.875.44a.095.095 0 0 0 .057.022.092.092 0 0 0 .062-.027z" opacity="1" data-original="#faa781"></path><path fill="#4fabf7" d="M.924.726A.31.31 0 0 1 .708.639V.564C.708.532.741.52.767.51l.1-.039a.07.07 0 0 0 .137 0l.099.039c.026.01.059.022.059.054v.05a.311.311 0 0 1-.238.112z" opacity="1" data-original="#4fabf7"></path><path fill="#73c3f9" d="M.798.7A.31.31 0 0 1 .78.69V.505L.798.497V.7zM1.072.497l.018.007v.174a.313.313 0 0 1-.018.01v-.19zM.926.533h.018v.193H.926z" opacity="1" data-original="#73c3f9"></path><path fill="#73c3f9" d="M.858.474.866.471a.07.07 0 0 0 .138 0l.008.003a.079.079 0 0 1-.154 0z" opacity="1" data-original="#73c3f9"></path><path fill="#f9ba8f" d="M.932.454C.876.454.828.383.828.324V.318L.83.313C.861.274.888.265.913.257.93.25.946.245.963.229a.007.007 0 0 1 .007 0h.003a.007.007 0 0 1 .004.007c0 .018.033.05.054.065a.007.007 0 0 1 .003.004.104.104 0 0 1 .002.02c0 .058-.048.13-.104.13z" opacity="1" data-original="#f9ba8f"></path></g></svg>